<?xml version="1.0" encoding="UTF-8"?>
<svg width="190px" height="190px" viewBox="0 0 190 190" version="1.1" xmlns="http://www.w3.org/2000/svg" xmlns:xlink="http://www.w3.org/1999/xlink">
    <title>关闭26</title>
    <g id="页面-1" stroke="none" stroke-width="1" fill="none" fill-rule="evenodd">
        <g id="关闭26" transform="translate(-0.002254, -0.002026)" fill="#D3D3D3" fill-rule="nonzero">
            <path d="M94.8522542,80.7120258 L17.0722542,2.93202584 C13.1484653,-0.857696257 6.91140643,-0.803497901 3.05406844,3.05384008 C-0.80326954,6.91117807 -0.857467896,13.148237 2.9322542,17.0720258 L80.7022542,94.8520258 L2.9322542,172.632026 C0.404600062,175.157894 -0.583514277,178.840379 0.3401243,182.292326 C1.26376288,185.744272 3.95883169,188.441247 7.41012439,189.367326 C10.8614171,190.293404 14.5446002,189.307894 17.0722542,186.782026 L94.8522542,108.992026 L172.632254,186.782026 C175.159908,189.30968 178.844044,190.296841 182.296884,189.371656 C185.749724,188.44647 188.446699,185.749495 189.371884,182.296656 C190.29707,178.843816 189.309908,175.15968 186.782254,172.632026 L108.992254,94.8520258 L186.782254,17.0720258 C190.686907,13.1646112 190.684669,6.83167915 186.777254,2.92702605 C182.869839,-0.97762705 176.536907,-0.975388569 172.632254,2.93202584 L94.8522542,80.7020258 L94.8522542,80.7120258 Z" id="路径"></path>
        </g>
    </g>
</svg>