<?xml version="1.0" encoding="UTF-8"?>
<svg width="29px" height="28px" viewBox="0 0 29 28" version="1.1" xmlns="http://www.w3.org/2000/svg" xmlns:xlink="http://www.w3.org/1999/xlink">
    <title>discord</title>
    <g id="页面-1" stroke="none" stroke-width="1" fill="none" fill-rule="evenodd">
        <g id="官网（确定版）" transform="translate(-1489.000000, -25.000000)">
            <g id="discord" transform="translate(1489.333333, 25.000000)">
                <rect id="矩形" x="0" y="0" width="28" height="28"></rect>
                <path d="M21.652581,7.43577098 C21.6464662,7.42375411 21.6363328,7.4143377 21.6239958,7.40920842 C20.1976116,6.74547203 18.6923673,6.27217602 17.1459324,6.00116486 C17.1171161,5.9957315 17.0881122,6.0096516 17.0739832,6.03569619 C16.869016,6.41299425 16.6829511,6.80054151 16.5164982,7.1968597 C14.8495259,6.94022047 13.1539086,6.94022047 11.4869363,7.1968597 C11.3193815,6.79953516 11.1303349,6.41189128 10.9206588,6.03569619 C10.9059413,6.01027466 10.8773848,5.99657634 10.8486721,6.00116486 C9.30207382,6.27160707 7.79673177,6.74493866 6.3705339,7.40924637 C6.35832508,7.4144957 6.34802354,7.42345858 6.3410508,7.43489821 C3.48893531,11.7546541 2.70763323,15.9681977 3.0909135,20.1295649 C3.093092,20.1501711 3.10342058,20.1689992 3.11953605,20.1817413 C4.78029647,21.4288739 6.6378771,22.3808197 8.61300779,22.9969557 C8.64149454,23.0056224 8.67228987,22.9953881 8.69019514,22.9713038 C9.11441037,22.3858953 9.49029693,21.7659994 9.81403244,21.1179199 C9.82303011,21.0999316 9.82400939,21.0788984 9.81672308,21.0601302 C9.80943677,21.041362 9.79458114,21.0266522 9.77590645,21.0197143 C9.18316081,20.7896953 8.60931381,20.5124128 8.05975074,20.190469 C8.03947721,20.1783817 8.02647791,20.1568409 8.02508857,20.1330314 C8.02369923,20.1092218 8.03410266,20.0862764 8.05282895,20.0718482 C8.1684703,19.9842413 8.28210519,19.8939425 8.39364307,19.8010239 C8.41359718,19.7843559 8.4411395,19.7805922 8.46473176,19.7913096 C12.0651492,21.4578069 15.9630915,21.4578069 19.5208932,19.7913096 C19.5445573,19.779901 19.5725849,19.7833434 19.5928798,19.8001511 C19.7045445,19.893561 19.8184709,19.9841544 19.9345545,20.0718482 C19.9533809,20.0861284 19.9639488,20.1089877 19.9627321,20.1327989 C19.9615154,20.1566102 19.9486743,20.178239 19.9284933,20.190469 C19.3801799,20.515121 18.8058127,20.7922298 18.2115144,21.0188416 C18.1928488,21.0260455 18.1780954,21.0409765 18.1709524,21.0598917 C18.1638094,21.078807 18.164954,21.0999133 18.1740993,21.1179199 C18.5032549,21.7623954 18.8785879,22.3815103 19.2970761,22.9702793 C19.3144952,22.9950478 19.3455792,23.0057448 19.3742634,22.9968418 C21.3529335,22.3827948 23.2137608,21.4307604 24.8766025,20.1817413 C24.8929819,20.1696176 24.9034128,20.1509209 24.9052251,20.1304376 C25.3640839,15.319464 24.1370183,11.1404518 21.652581,7.43577098 L21.652581,7.43577098 Z M10.3517248,17.595724 C9.26773459,17.595724 8.37456137,16.5868398 8.37456137,15.3478101 C8.37456137,14.1087803 9.2504114,13.0998203 10.3517248,13.0998203 C11.4616437,13.0998203 12.346174,14.117546 12.3288508,15.3477342 C12.3288508,16.5868398 11.4529634,17.595724 10.3517248,17.595724 L10.3517248,17.595724 Z M17.6618866,17.595724 C16.5779338,17.595724 15.6847606,16.5868398 15.6847606,15.3478101 C15.6847606,14.1087803 16.5606106,13.0998203 17.6618866,13.0998203 C18.7718803,13.0998203 19.6563733,14.117546 19.6390501,15.3477342 C19.6390501,16.5868398 18.7718803,17.595724 17.6618866,17.595724 Z" id="形状" fill="#FFFFFF" fill-rule="nonzero"></path>
            </g>
        </g>
    </g>
</svg>
