<?xml version="1.0" encoding="UTF-8"?>
<svg width="29px" height="28px" viewBox="0 0 29 28" version="1.1" xmlns="http://www.w3.org/2000/svg" xmlns:xlink="http://www.w3.org/1999/xlink">
    <title>medium-m</title>
    <g id="页面-1" stroke="none" stroke-width="1" fill="none" fill-rule="evenodd">
        <g id="官网（确定版）" transform="translate(-1535.000000, -25.000000)">
            <g id="medium-m" transform="translate(1535.333333, 25.000000)">
                <rect id="矩形" x="0" y="0" width="28" height="28"></rect>
                <path d="M6.48769899,9.46821261 C6.51374819,9.20687858 6.41389291,8.94554455 6.22286541,8.76836894 L4.26483357,6.35878061 L4.26483357,6 L10.3516643,6 L15.0578871,16.5286608 L19.195369,6 L25,6 L25,6.35878061 L23.3241679,7.99765503 C23.1808973,8.10838979 23.1070912,8.29442418 23.1374819,8.47602918 L23.1374819,20.5239708 C23.1070912,20.7055758 23.1808973,20.8916102 23.3241679,21.002345 L24.9609262,22.6412194 L24.9609262,23 L16.7250362,23 L16.7250362,22.6412194 L18.422576,20.9624805 C18.5875543,20.7941636 18.5875543,20.7410109 18.5875543,20.4841063 L18.5875543,10.7483064 L13.8683068,22.9689943 L13.2301013,22.9689943 L7.74240232,10.7483064 L7.74240232,18.9382491 C7.69464544,19.2837415 7.80752533,19.629234 8.0463097,19.8772798 L10.251809,22.6057843 L10.251809,22.9645649 L4,22.9645649 L4,22.6102137 L6.20549928,19.8772798 C6.43994211,19.629234 6.54848046,19.2793121 6.48769899,18.9382491 L6.48769899,9.46821261 Z" id="路径" fill="#D3D3D3" fill-rule="nonzero"></path>
            </g>
        </g>
    </g>
</svg>
