<?xml version="1.0" encoding="UTF-8"?>
<svg width="152px" height="126px" viewBox="0 0 152 126" version="1.1" xmlns="http://www.w3.org/2000/svg" xmlns:xlink="http://www.w3.org/1999/xlink">
    <title>icon_目录</title>
    <g id="页面-1" stroke="none" stroke-width="1" fill="none" fill-rule="evenodd">
        <g id="icon_目录" transform="translate(0.988281, 0.525391)" fill="#FFFFFF" fill-rule="nonzero">
            <path d="M148.189453,12.5 L1.83789062,12.5 C0.822265625,12.5 0,11.6777344 0,10.6621094 L0,1.83789063 C0,0.822265625 0.822265625,7.10542736e-15 1.83789062,7.10542736e-15 L148.189453,7.10542736e-15 C149.205078,7.10542736e-15 150.027347,0.822265625 150.027347,1.83789063 L150.027347,10.6621094 C150.029297,11.6757813 149.205078,12.5 148.189453,12.5 Z M148.189453,68.9628906 L1.83789062,68.9628906 C0.822265625,68.9628906 0,68.140625 0,67.125 L0,58.3007813 C0,57.2851563 0.822265625,56.4628906 1.83789062,56.4628906 L148.189453,56.4628906 C149.205078,56.4628906 150.027347,57.2851563 150.027347,58.3007813 L150.027347,67.125 C150.029297,68.140625 149.205078,68.9628906 148.189453,68.9628906 Z M148.189453,125.037109 L1.83789062,125.037109 C0.822265625,125.037109 0,124.214844 0,123.199219 L0,114.375 C0,113.359375 0.822265625,112.537109 1.83789062,112.537109 L148.189453,112.537109 C149.205078,112.537109 150.027347,113.359375 150.027347,114.375 L150.027347,123.199219 C150.029297,124.214844 149.205078,125.037109 148.189453,125.037109 Z" id="形状"></path>
        </g>
    </g>
</svg>