<?xml version="1.0" encoding="UTF-8"?>
<svg width="29px" height="28px" viewBox="0 0 29 28" version="1.1" xmlns="http://www.w3.org/2000/svg" xmlns:xlink="http://www.w3.org/1999/xlink">
    <title>推特</title>
    <g id="页面-1" stroke="none" stroke-width="1" fill="none" fill-rule="evenodd">
        <g id="官网（确定版）" transform="translate(-1443.000000, -25.000000)">
            <g id="推特" transform="translate(1443.333333, 25.000000)">
                <rect id="矩形" x="0" y="0" width="28" height="28"></rect>
                <path d="M22.8619507,10.8388666 C22.8619507,10.6528469 22.8581725,10.468926 22.8494676,10.2862643 C23.6915375,9.6937507 24.4221488,8.95205054 25,8.10331387 C24.2152606,8.43675501 23.3802175,8.65249159 22.525019,8.74273468 C23.415095,8.22549642 24.0977002,7.39827199 24.4202597,6.40556069 C23.5868576,6.88285265 22.6649998,7.22407528 21.6848383,7.40187485 C20.8994793,6.55800028 19.7787444,6.02050904 18.5397723,6.00053589 C16.1602849,5.96338792 14.2313733,7.86223683 14.2313733,10.241176 C14.2313733,10.5793205 14.2688225,10.907251 14.3431653,11.2239182 C10.7599695,11.0061724 7.58478854,9.24489687 5.46085217,6.58976146 C5.09024955,7.22589421 4.87762997,7.96934333 4.87762997,8.76606583 C4.87762997,10.2729722 5.63828212,11.6122929 6.79402146,12.4026142 C6.08648717,12.3723922 5.4236993,12.1700372 4.84236623,11.8382589 L4.84236623,11.8935961 C4.84236623,13.9996971 6.32796229,15.7642957 8.29917557,16.1760015 C7.93779634,16.2730689 7.55663684,16.323579 7.16462409,16.3217601 C6.8922567,16.3204312 6.62077426,16.292355 6.35455825,16.2379847 C6.90229446,17.9638962 8.49420032,19.2248285 10.378847,19.2668385 C8.90384493,20.4217486 7.04579418,21.1116095 5.02850098,21.1067824 C4.68067903,21.1067824 4.33696873,21.0847455 4,21.0447991 C5.90746443,22.2803714 8.17167788,23 10.6056907,23 C18.528919,23.0017836 22.8619507,16.4893107 22.8619507,10.8388666 L22.8619507,10.8388666 Z" id="路径" fill="#FFFFFF" fill-rule="nonzero"></path>
            </g>
        </g>
    </g>
</svg>